<?xml version="1.0" encoding="UTF-8"?>
<svg version="1.1" xmlns="http://www.w3.org/2000/svg" width="512" height="512">
<path d="M0 0 C2.94904539 1.62563838 5.85529507 3.31769667 8.765625 5.01171875 C52.27677897 29.51812914 100.92420246 43.97359973 150.70825195 47.6730957 C154.9725288 48.37495306 157.71907191 50.89298958 160.578125 53.94921875 C163.17135055 58.45324207 162.95420785 63.58152958 163.06274414 68.65429688 C163.08238881 69.41362864 163.10203348 70.17296041 163.12227345 70.95530224 C163.18632096 73.48443523 163.24375988 76.01366824 163.30078125 78.54296875 C163.34412959 80.34382095 163.38768273 82.14466824 163.431427 83.94551086 C163.54730141 88.7943866 163.65597992 93.64339653 163.76202011 98.49249649 C163.82807008 101.50921036 163.89549606 104.52589134 163.96304321 107.54257202 C164.5481117 133.91242966 164.96157094 160.27690462 164.95365524 186.65365601 C164.95313115 188.7990539 164.95428732 190.94444629 164.95559692 193.08984375 C164.96460939 233.91884863 164.96460939 233.91884863 162.515625 249.26171875 C162.38849121 250.07833984 162.26135742 250.89496094 162.13037109 251.73632812 C153.9137977 300.90185463 117.81061534 338.96126981 78.703125 366.88671875 C56.95051104 382.16251416 33.66767464 395.05949482 9.640625 406.38671875 C8.66375732 406.8573877 7.68688965 407.32805664 6.68041992 407.81298828 C1.44614965 410.21657761 -3.42646345 412.42862165 -9.234375 411.01171875 C-13.92412283 409.22321004 -18.38513199 407.0245493 -22.859375 404.76171875 C-24.15506925 404.11921389 -25.45113526 403.47745824 -26.74755859 402.83642578 C-55.38996602 388.59740879 -83.5780815 372.65042868 -107.66186523 351.39575195 C-108.79861428 350.39525042 -109.94225284 349.40255825 -111.09008789 348.41479492 C-142.03703151 321.69253499 -169.20727648 285.81016923 -172.40550232 243.76184082 C-173.49873008 225.96901468 -173.43370998 208.14256418 -173.421875 190.32421875 C-173.42175541 189.52913658 -173.42163582 188.73405441 -173.4215126 187.91487885 C-173.4160406 159.00504016 -173.05358218 130.10328963 -172.48077774 101.19936752 C-172.42193689 98.13993673 -172.36829593 95.08045381 -172.31600952 92.02090454 C-172.2325074 87.19234087 -172.1339638 82.36431254 -172.02355957 77.53629112 C-171.98483362 75.75269953 -171.95084308 73.96899797 -171.92190552 72.18522072 C-171.8810154 69.73640136 -171.82210988 67.2886532 -171.75854492 64.84033203 C-171.75063022 64.13021626 -171.74271551 63.4201005 -171.73456097 62.68846607 C-171.58989051 58.10437099 -170.63506786 54.91448912 -168.234375 51.01171875 C-163.57623536 46.99241463 -159.22404697 46.13652307 -153.33203125 45.3359375 C-152.47021744 45.20545517 -151.60840363 45.07497284 -150.72047424 44.9405365 C-148.87362091 44.66111534 -147.02585485 44.38767265 -145.17730713 44.11968994 C-140.29285425 43.40668174 -135.41795254 42.63413262 -130.54296875 41.859375 C-129.56980713 41.70502991 -128.59664551 41.55068481 -127.59399414 41.3916626 C-89.77431599 35.31241802 -46.82746527 25.23491216 -15.3125 2.2421875 C-10.4222757 -1.30136336 -5.60554643 -2.47937631 0 0 Z " fill="#005174" transform="translate(260.234375,52.98828125)"/>
<path d="M0 0 C4.9787943 2.17643388 9.48369054 4.98096327 14.0625 7.875 C15.35432643 8.66491598 16.6478851 9.45200569 17.94311523 10.23632812 C20.49008304 11.78070156 23.03089195 13.33435778 25.56640625 14.89746094 C67.16275379 40.46687968 113.01375415 53.19065953 161.43359375 57.01953125 C162.53438766 57.10683502 163.63518158 57.19413879 164.76933289 57.28408813 C170.33552135 57.72080947 175.90223394 58.13600939 181.47241211 58.51855469 C183.54150698 58.6698799 185.6105989 58.82124534 187.6796875 58.97265625 C188.63165512 59.03193802 189.58362274 59.09121979 190.56443787 59.15229797 C196.96319993 59.63424866 201.72358758 60.60053826 206.3125 65.4375 C209.37449324 70.08719344 209.15948603 74.59616077 209.18945312 80.03686523 C209.19774643 80.84608429 209.20603973 81.65530334 209.21458435 82.48904419 C209.2319857 84.25082382 209.24715229 86.01262661 209.26036072 87.77444267 C209.28158765 90.60359608 209.30861955 93.43264423 209.33703613 96.26173401 C209.38666506 101.29945848 209.43112139 106.33721348 209.47393799 111.375 C209.54963134 120.269589 209.63099338 129.16411565 209.71875 138.05859375 C209.73292245 139.52498385 209.73292245 139.52498385 209.74738121 141.020998 C209.87583757 153.95426884 210.12556989 166.87692568 210.51953125 179.8046875 C211.06973401 198.00221404 211.18755559 216.19206187 211.18530273 234.3972168 C211.18522074 237.9438173 211.19230949 241.49029063 211.20581055 245.03686523 C211.39987805 296.92108254 206.7990806 344.26742232 176 388 C175.53368164 388.66837891 175.06736328 389.33675781 174.58691406 390.02539062 C166.94431193 400.88344582 158.26450907 410.5107872 149 420 C147.99586405 421.04404996 146.99194071 422.08830447 145.98828125 423.1328125 C140.90593727 428.33840876 135.65262865 433.13485604 129.953125 437.65625 C127.91142417 439.27664748 125.90945008 440.91062291 123.921875 442.59375 C106.25465916 457.38382241 86.23286399 470.03261456 66 481 C65.15147461 481.46003418 64.30294922 481.92006836 63.42871094 482.39404297 C51.70352083 488.70416437 39.79333505 494.6317589 27.8125 500.4375 C27.20915833 500.73073151 26.60581665 501.02396301 25.98419189 501.32608032 C22.00669709 503.25544185 18.00964079 505.13848703 14 507 C12.95118652 507.50160645 11.90237305 508.00321289 10.82177734 508.52001953 C2.73739735 512.19262682 -3.0581254 513.75790211 -11.59228516 510.72216797 C-15.9099081 508.95766584 -20.10812836 506.95370656 -24.3125 504.9375 C-25.86620773 504.207785 -27.42033183 503.47895597 -28.97485352 502.75097656 C-54.90624285 490.53526795 -80.43584202 477.41075288 -104 461 C-104.53753906 460.62697754 -105.07507813 460.25395508 -105.62890625 459.86962891 C-118.16308749 451.14352608 -130.16880737 441.94333294 -141.3203125 431.49609375 C-143.5911045 429.38088079 -145.89529043 427.33278584 -148.25 425.3125 C-155.0871357 419.3493899 -161.04691854 412.91992104 -166.71875 405.83984375 C-168.19592633 404.00096157 -169.6947954 402.17921177 -171.21875 400.37890625 C-204.11005251 361.40734535 -215.19540663 317.67675039 -215.1328125 267.7109375 C-215.13348997 265.75892118 -215.13446363 263.80690495 -215.13571167 261.85488892 C-215.13717831 257.76523026 -215.13507458 253.67559357 -215.13037109 249.5859375 C-215.12478694 244.49748027 -215.12798065 239.40907669 -215.13381767 234.32062149 C-215.15590045 211.48250491 -214.93083585 188.66562047 -214.37658691 165.834198 C-214.09114368 153.9733508 -213.8974644 142.11602954 -213.80857468 130.25205612 C-213.78929817 127.6876029 -213.76786093 125.12317663 -213.74575806 122.55874634 C-213.68821425 115.78952174 -213.63105901 109.02037601 -213.59863281 102.25097656 C-213.57771462 97.98324389 -213.54256664 93.71583519 -213.49787521 89.44828796 C-213.48384181 87.85678358 -213.47502184 86.26522332 -213.47182083 84.67366028 C-213.4669153 82.4858599 -213.44381191 80.29894744 -213.41650391 78.11132812 C-213.40841705 76.8777356 -213.4003302 75.64414307 -213.39199829 74.37316895 C-212.81691578 69.42454922 -211.22289876 66.14483876 -207.59423828 62.74780273 C-202.37405799 60.20933848 -197.21851282 59.7127861 -191.4921875 59.03515625 C-190.2575174 58.87510605 -189.02284729 58.71505585 -187.75076294 58.55015564 C-184.45834149 58.1251397 -181.16487389 57.71300762 -177.86993408 57.30828857 C-152.62064627 54.19741564 -127.22789832 51.04096778 -102.5625 44.625 C-101.41330078 44.33028809 -100.26410156 44.03557617 -99.08007812 43.73193359 C-75.9725129 37.68530417 -53.64992253 29.83723539 -34 16 C-33.29149902 15.505 -32.58299805 15.01 -31.85302734 14.5 C-28.16014993 11.91728051 -24.4793983 9.31868183 -20.8125 6.69921875 C-20.15507812 6.2407959 -19.49765625 5.78237305 -18.8203125 5.31005859 C-17.22201921 4.15978475 -15.69716814 2.90887831 -14.1875 1.64453125 C-9.31712245 -0.86824933 -5.3599049 -1.08089034 0 0 Z M-9.6953125 31.39453125 C-10.40163818 31.93311768 -11.10796387 32.4717041 -11.83569336 33.02661133 C-12.59116455 33.61595459 -13.34663574 34.20529785 -14.125 34.8125 C-58.20917436 67.82312301 -115.10464015 76.31379321 -168.36010742 83.08398438 C-169.30937103 83.20517136 -170.25863464 83.32635834 -171.23666382 83.45121765 C-173.02950079 83.67897844 -174.82272111 83.90374786 -176.61636353 84.12507629 C-177.81427017 84.27646309 -177.81427017 84.27646309 -179.03637695 84.4309082 C-179.73261673 84.51717972 -180.42885651 84.60345123 -181.14619446 84.69233704 C-183.22281279 84.98724928 -183.22281279 84.98724928 -186 86 C-187.45001198 148.40344957 -187.45001198 148.40344957 -188.625 210.8125 C-188.64537323 212.02231537 -188.66574646 213.23213074 -188.68673706 214.47860718 C-189.01965892 234.45821544 -189.20357205 254.42579935 -188.68261719 274.40356445 C-188.62470299 276.69927361 -188.57797226 278.99505478 -188.53125 281.29101562 C-188.20332384 295.24276639 -187.72876986 309.63630452 -183.375 323 C-183.11412598 323.82628906 -182.85325195 324.65257812 -182.58447266 325.50390625 C-174.27746685 350.97418737 -160.11429562 373.17241582 -142.02734375 392.78515625 C-140.22726728 394.75171378 -138.5191193 396.76540802 -136.8125 398.8125 C-128.01032737 408.87212587 -117.5827052 417.50320306 -106.93847656 425.53271484 C-104.87187557 427.09698084 -102.82347957 428.68364092 -100.7734375 430.26953125 C-88.14453355 439.92193507 -74.79089713 448.11918134 -61 456 C-59.5444873 456.83313721 -59.5444873 456.83313721 -58.05957031 457.68310547 C-46.28542908 464.36502094 -34.24122387 470.49384354 -22.03347778 476.33959961 C-20.60513054 477.02476362 -19.17903395 477.71464129 -17.75534058 478.40942383 C-15.7583066 479.38051623 -13.75228793 480.32974734 -11.7421875 481.2734375 C-10.5857373 481.82435059 -9.42928711 482.37526367 -8.23779297 482.94287109 C-2.89399041 484.6876053 1.04871943 483.20057658 5.9921875 480.91796875 C6.93167236 480.48718018 7.87115723 480.0563916 8.83911133 479.61254883 C9.84095459 479.14228271 10.84279785 478.6720166 11.875 478.1875 C12.93291748 477.69467529 13.99083496 477.20185059 15.08081055 476.6940918 C18.39320224 475.14173768 21.69768145 473.57365739 25 472 C26.50022705 471.2889209 26.50022705 471.2889209 28.03076172 470.56347656 C50.35341947 459.91665727 72.00694889 447.59669661 92 433 C92.54108398 432.6076416 93.08216797 432.2152832 93.63964844 431.81103516 C113.28351071 417.51207508 132.0569136 401.24109787 147 382 C147.41862305 381.47374023 147.83724609 380.94748047 148.26855469 380.40527344 C186.24247129 332.46637056 186.15072586 275.01808106 184.66007042 216.81612968 C184.59483534 214.26875207 184.53268054 211.72131294 184.47114563 209.17384338 C184.38258625 205.51896342 184.29284712 201.86411553 184.2020874 198.20928955 C183.96482684 188.63839536 183.73701776 179.06727622 183.51171875 169.49609375 C183.48920296 168.54078262 183.46668716 167.5854715 183.44348907 166.60121155 C182.81312526 139.73661628 182.37905163 112.8692374 182 86 C173.48878832 85.02449075 164.98158327 84.05652515 156.4453125 83.32421875 C102.60968592 78.70196798 52.84573899 63.46178556 6.67993164 35.16748047 C5.60348389 34.51021973 4.52703613 33.85295898 3.41796875 33.17578125 C2.46688232 32.58708252 1.5157959 31.99838379 0.53588867 31.3918457 C-3.79661483 29.01391151 -5.67889338 28.2375777 -9.6953125 31.39453125 Z " fill="#00577A" transform="translate(258,0)"/>
</svg>
